<?xml version="1.0" encoding="utf-8"?>
<!-- Generator: Adobe Illustrator 19.1.0, SVG Export Plug-In . SVG Version: 6.00 Build 0)  -->
<svg version="1.1" id="Слой_1" xmlns="http://www.w3.org/2000/svg" xmlns:xlink="http://www.w3.org/1999/xlink" x="0px" y="0px"
	 viewBox="0 0 94 42" style="enable-background:new 0 0 94 42;" xml:space="preserve">
<style type="text/css">
	.st0{fill:#FFFFFF;}
</style>
<path class="st0" d="M51.4,23.1l0.8-6H51l0.2-1.1l1.2-0.5c0.6-0.5,1.2-1.7,1.6-2.7h1.9l-0.3,2.6h2l-0.2,1.6h-2l-0.8,6
	c-0.1,0.7-0.1,1.1-0.1,1.4c0,0.5,0.2,0.8,0.7,0.8c0.5,0,1.2-0.1,1.7-0.6l0.2,0.8c-0.6,0.7-1.9,1.7-4,1.7c-1,0-1.9-0.4-1.9-1.8
	C51.1,25.3,51.1,25.1,51.4,23.1z M64.6,15.4c0.8,0,1.7,0.2,2.3,0.4l1.5-0.4l-1.3,9.4c-0.1,0.5,0.1,0.8,0.4,0.8
	c0.2,0,0.4-0.1,0.9-0.5l0.3,0.7c-0.2,0.4-1.2,1.4-2.8,1.4c-1,0-1.6-0.4-1.7-1.3c-0.6,0.7-1.6,1.3-3,1.3c-2.5,0-3.5-1.9-3.5-4.2
	C57.9,19.1,60.2,15.4,64.6,15.4z M64,25l1.1-8.1c-0.2,0-0.4-0.1-0.7-0.1c-2.4,0-3.1,3.4-3.1,6.1c0,1.6,0.6,2.6,1.5,2.6
	C63.2,25.5,63.6,25.3,64,25z M72,12.2l-1.3-0.4L71,11l4-0.4l0.5,0.3l-2.1,16.2h-3.3L72,12.2z M74.2,20.9L74.2,20.9L74.2,20.9
	c1-0.5,1.8-1,2.9-2.5c0.4-0.5,0.5-1,0.5-1.7c0-1.1,0.9-1.4,1.6-1.4c0.8,0,1.3,0.6,1.3,1.3c0,0.7-0.3,1.2-0.6,1.6
	c-0.7,0.9-1.9,1.7-3,2.2l1.8,3.8c0.3,0.6,0.7,0.9,1.1,0.9c0.2,0,0.8-0.2,1.1-0.5l0.3,0.7C81,26,79.6,27.2,78,27.2
	c-1.1,0-1.7-0.5-1.9-1.2L74.2,20.9z M88.1,15.4c2.2,0,3.2,1.1,3.2,2.5c0.1,3.3-3.6,4.5-6.1,4.6c0,2.1,0.7,3,1.8,3
	c1.6,0,2.4-0.9,2.9-1.6l0.6,1c-0.5,0.9-2.1,2.3-4.6,2.3c-3.2,0-4.3-2.2-4.3-4.5C81.7,18.5,84.5,15.4,88.1,15.4z M88.2,18.2
	c0-0.9-0.3-1.4-0.8-1.4c-1.5,0-2,2.6-2.1,4.5C86.4,21.2,88.3,20.2,88.2,18.2z"/>
<path class="st0" d="M20.5,16.3c-2.6,0-4.7,2.1-4.7,4.7s2.1,4.7,4.7,4.7c2.6,0,4.7-2.1,4.7-4.7S23.1,16.3,20.5,16.3z M20.5,28.9
	c-4.3,0-7.9-3.5-7.9-7.9c0-4.4,3.5-7.9,7.9-7.9c4.4,0,7.9,3.5,7.9,7.9C28.4,25.3,24.9,28.9,20.5,28.9z M20.5,3.7
	C10.9,3.7,3.2,11.4,3.2,21s7.8,17.3,17.3,17.3S37.8,30.6,37.8,21S30.1,3.7,20.5,3.7z M20.5,41.5C9.2,41.5,0,32.3,0,21
	S9.2,0.5,20.5,0.5S41,9.7,41,21S31.8,41.5,20.5,41.5z"/>
</svg>
